<?xml version="1.0" standalone="yes"?>
<svg xmlns="http://www.w3.org/2000/svg" width="3324" height="573">
<path style="fill:#ffffff; stroke:none;" d="M0 0L0 267C6.50056 268.003 10.9002 273.792 16 277.625C24.3729 283.918 33.3521 289.447 43 293.573C63.9819 302.546 87.318 306 110 306C127.923 306 148.468 302.791 160.346 320.004C173.018 338.366 135.529 353.335 147.804 370.996C160.548 389.332 191.298 385.531 204.532 369.961C217.644 354.535 211.399 338.907 211.054 321C210.82 308.847 214.135 295.781 219.605 285C233.824 256.975 264.182 244.261 284.91 222C290.293 216.22 304.943 203.081 298.258 194.228C292.698 186.866 271.93 192.076 264 192.83C240.417 195.073 213.36 187.582 192 178.138C139.195 154.792 100.688 103.325 81.6921 50C76.1118 34.3349 74.143 18.0132 70 2L73 1L50 0L0 0z"/>
<path style="fill:#3997d3; stroke:none;" d="M70 2C84.0239 74.3141 120.819 148.95 193 178.988C214.762 188.045 241.201 195.095 265 192.83C273.344 192.036 292.622 186.94 298.257 195.109C304.036 203.487 289.157 216.566 283.961 222C263.577 243.318 234.326 256.217 220.12 283C213.985 294.566 210.528 308.863 211.04 322C211.679 338.392 216.761 352.418 206.073 366.999C193.019 384.807 163.07 389.965 148.533 370.996C135.48 353.963 173.761 338.054 160.347 319.015C148.834 302.672 129.069 306 112 306C88.342 306 63.7038 302.629 42 292.691C32.722 288.443 24.1113 283.04 16 276.87C10.8054 272.918 6.82744 267.515 0 267C0 309.277 31.057 346.876 70 361.575C83.6889 366.742 97.2054 365.87 111 369.239C122.513 372.051 126.488 382.155 134.09 389.96C141.591 397.66 152.354 402.563 163 403.83C177.365 405.54 192.203 405.229 206 400.302C215.072 397.062 223.244 390.234 233 389.174C246.952 387.657 259.225 394.853 272 399.305C300.673 409.297 335.215 413.439 355.674 438C360.717 444.053 364.486 451.483 366.795 459C383.784 514.321 319.77 552.737 274 524.533C255.334 513.031 248.327 494.786 242 475L235 476C235 489.709 237.579 501.639 243.759 514C286.169 598.819 425.711 591.066 453.562 498C470.925 439.977 437.11 385.672 380 368.721C351.239 360.184 320.147 363.73 291 357.112C259.996 350.072 238.763 316.052 258.105 287C261.461 281.96 266.153 277.366 271 273.761C274.982 270.799 279.32 268.506 284 266.865C320.359 254.111 338.2 297.736 371 301.714C389.922 304.008 408.434 287.984 427 284.614C447.326 280.925 467.91 285.305 488 279.573C543.318 263.787 586.159 212.629 586 155C576.031 159.649 568.11 170.638 559 177.14C542.142 189.17 522.238 197.455 502 201.789C480.124 206.475 458.336 208.262 436 207.996C423.333 207.845 410.079 203.576 398 209.328C372.68 221.384 394.77 245.158 396.915 261.83C398.298 272.579 383.947 272.527 377 271.195C373.226 270.472 369.526 269.51 366 267.957C355.908 263.513 348.614 253.572 343.756 244C332.963 222.731 329.34 196.477 338.453 174C348.518 149.173 370.977 132.228 356.741 103C341.498 71.7046 306.251 76.0469 277 76C229.08 75.9231 177.33 69.6349 135 45.4213C118.242 35.8353 103.663 24.6415 90 11C84.3309 5.34003 78.4792 -2.00372 70 2z"/>
<path style="fill:#ffffff; stroke:none;" d="M77 0L77 1C91.1144 9.15863 101.568 23.9733 115 33.5725C140.83 52.0315 171.825 63.9427 203 69.5756C231.074 74.6482 259.531 76 288 76C307.011 76 328.312 74.3292 343.999 87.3287C359.258 99.9729 365.93 122.584 357.688 141C352.257 153.132 342.299 162.358 337.695 175C328.949 199.014 333.257 228.319 346.464 250C354.165 262.644 377.839 280.851 393.775 269.91C401.551 264.573 394.436 253.837 391.309 248C384.722 235.703 383.119 218.462 397.001 210.363C408.204 203.827 420.901 207.431 433 207.961C451.383 208.766 469.837 207.529 488 204.725C512.235 200.984 536.582 193.056 557 179.255C567.563 172.115 575.719 162.243 586 155C586.038 212.537 541.947 263.893 487 279.573C467.232 285.214 447.026 281.069 427 284.435C408.943 287.47 390.094 303.718 372 301.71C344.849 298.696 332.665 271.143 307 265.669C275.853 259.026 248.943 285.381 251.09 316C254.001 357.543 300.256 359.762 332 362.089C382.326 365.778 438.45 383.578 454.561 438C471.888 496.528 426.234 569.278 363 572L363 573L3324 573L3324 402L3323 402C3316.66 421.842 3282.97 426.44 3268.04 413.66C3260.64 407.322 3260 398.058 3260 389L3281 389C3281.01 394.146 3281.09 399.891 3286.1 402.856C3293.78 407.391 3304.27 401.343 3301.57 392.093C3299.53 385.134 3287.89 383.112 3282 380.947C3267.53 375.633 3256.67 363.169 3262.1 347C3268.3 328.564 3298.18 323.113 3313 334.419C3320.63 340.245 3322.81 348.843 3323 358L3302 358C3301.65 353.74 3301.08 348.585 3296.89 346.319C3289.51 342.321 3279.98 350.046 3284.18 357.956C3286.93 363.135 3293.92 364.304 3299 366C3308.97 369.325 3319.52 373.089 3323 384L3324 384L3324 0L77 0z"/>
<path style="fill:#231f21; stroke:none;" d="M1589 329L1556 329C1556 339.502 1556.84 349.916 1560.03 360C1575.99 410.412 1630.42 422.629 1677 420.035C1711.13 418.135 1750.64 401.411 1761.28 366C1763.68 357.989 1764 350.292 1764 342C1764 284.209 1703.33 272.85 1658 263.211C1636.25 258.586 1603.49 252.515 1599.44 226C1594.87 196.067 1626.86 180.122 1652 180.001C1675 179.89 1700.29 185.007 1712.49 207C1716.79 214.767 1718.38 223.395 1720 232L1754 232C1748.14 207.373 1747.34 185.891 1725 168.899C1678.51 133.537 1576.87 143.856 1565.08 211C1563.78 218.453 1563.44 226.449 1564.17 234C1569.12 285.164 1633.09 292.175 1673 300.79C1694.7 305.473 1724.97 314.14 1728.7 340C1733.98 376.62 1694.49 391 1665 391C1639.34 391 1610.94 382.731 1597.34 359C1591.76 349.275 1590.99 339.709 1589 329z"/>
<path style="fill:#a3abbd; stroke:none;" d="M2625 155L2625 417L2631 417L2631 155L2625 155z"/>
<path style="fill:#231f21; stroke:none;" d="M775 156L775 415L810 415L810 309L878 309C898.184 309 917.873 309.497 936 299.127C979.124 274.457 980.686 193.465 938 167.464C917.529 154.994 894.025 156 871 156L775 156M1108 156L1108 194L1140 194L1140 156L1108 156M2368 156L2368 415L2400 415L2400 365L2401.03 344.039L2428 318C2439.53 342.369 2458.38 365.529 2473.33 388C2478.05 395.091 2484.05 409.563 2491.33 413.972C2499.75 419.073 2521.17 415 2531 415C2527.59 404.312 2518.53 394.298 2512.33 385L2474.33 328L2459.67 306C2457.91 303.36 2454.16 299.439 2454.73 296C2455.84 289.334 2467.38 282.463 2472 278.011C2484.38 266.086 2497.41 254.795 2510 243.09C2515.4 238.068 2522.3 233.469 2526 227C2513.95 227 2495.3 223.437 2484 227.603C2475.64 230.688 2468.66 241.788 2462 247.576C2440.54 266.216 2420.1 286.898 2400 307L2400 156L2368 156z"/>
<path style="fill:#3997d3; stroke:none;" d="M2775 157L2775 191C2762.24 178.828 2741.03 180.023 2734.07 198C2727.4 215.219 2727.12 243.026 2734.68 260C2742.44 277.429 2763.92 276.786 2776 265L2776 272L2798 272L2798 157L2775 157M2894 160L2894 185L2882 185L2882 201L2894 201L2894 250C2894 256.638 2893.05 264.811 2899.11 269.297C2906.36 274.675 2920.44 272 2929 272L2929 256C2924.92 255.963 2920.31 255.946 2918.03 251.891C2915.81 247.947 2917 241.375 2917 237L2917 201L2929 201L2929 185L2917 185L2917 160L2894 160z"/>
<path style="fill:#231f21; stroke:none;" d="M1381 171L1381 227L1350 227L1350 255L1381 255L1381 363C1381 376.986 1379.62 396.524 1391.04 406.787C1405.24 419.547 1432.47 415 1450 415L1450 387C1440.77 387 1424.51 389.74 1417.23 382.721C1409.63 375.393 1413 357.585 1413 348L1413 255L1450 255L1450 227L1413 227L1413 171L1381 171z"/>
<path style="fill:#3997d3; stroke:none;" d="M2812 212L2833 212C2833.11 207.516 2833.73 202.599 2838.1 200.179C2845.43 196.121 2854.67 204.315 2850.82 211.985C2844.33 224.911 2821.31 218.998 2812.99 232.015C2805.64 243.524 2807.22 267.364 2822 272.362C2834.02 276.428 2843.45 271.641 2853 265C2854.19 275.547 2869.02 272 2877 272C2873.06 254.799 2874 237.631 2874 220C2874 210.79 2875.47 200.11 2870.03 192.04C2860.96 178.596 2829.14 179.481 2818.47 190.329C2812.5 196.397 2812 203.986 2812 212M2936 212L2957 212C2957.11 207.516 2957.73 202.599 2962.1 200.179C2969.43 196.121 2978.67 204.315 2974.82 211.985C2968.15 225.26 2944.67 218.872 2936.53 233.004C2929.87 244.578 2931.44 267.437 2946 272.362C2957.98 276.411 2967.57 271.741 2977 265C2978.19 275.547 2993.02 272 3001 272C2997.06 254.799 2998 237.631 2998 220C2998 210.79 2999.47 200.11 2994.03 192.04C2984.96 178.596 2953.14 179.481 2942.47 190.329C2936.5 196.397 2936 203.986 2936 212z"/>
<path style="fill:#ffffff; stroke:none;" d="M810 186L810 279L871 279C884.988 279 899.184 279.697 912 273.015C939.552 258.652 940.868 209.534 914 193.877C899.813 185.609 883.851 186 868 186L810 186M2760.1 201.858C2755.48 203.929 2754.63 209.541 2754 214C2752.48 224.683 2752.06 236.431 2754.68 247C2756.15 252.891 2761.54 257.924 2767.91 255.141C2779.47 250.09 2776.1 218.738 2773.48 209.001C2771.88 203.043 2766.24 199.109 2760.1 201.858z"/>
<path style="fill:#231f21; stroke:none;" d="M1025 265L1024 265L1024 227L994 227L994 415L1026 415L1026 380C1026 338.363 1016.43 274.642 1068 259.439C1075.86 257.121 1084.83 256.169 1093 256L1093 223C1064.8 223 1033.87 234.855 1025 265M1209 255L1208 255L1208 227L1178 227L1178 415L1209 415L1209 330C1209 312.316 1207.87 292.982 1216.88 277C1230.97 251.992 1274.61 238.238 1294.39 265.001C1304.29 278.403 1302 297.309 1302 313L1302 415L1333 415L1333 308C1333 287.594 1334.79 265.141 1323.53 247C1306.68 219.842 1263.96 217.259 1237 228.616C1225.92 233.283 1212.9 243.239 1209 255M1825 250L1824 250L1824 227L1792 227L1792 486L1824 486L1824 392C1854.91 429.957 1919.04 427.207 1949.54 390C1978.89 354.184 1977.68 286.027 1947.7 251C1925.85 225.471 1891.05 217.43 1859 225.63C1845.81 229.003 1830.22 236.515 1825 250M2156 355C2148.99 355 2131.36 351.782 2125.7 356.028C2122.36 358.536 2121.61 365.416 2119.54 369C2114.77 377.231 2107.77 383.421 2099 387.124C2074.96 397.281 2043.64 388.834 2029.1 367C2021.9 356.186 2020 343.671 2019 331L2159 331C2159 295.853 2152.32 258.956 2122 236.757C2090.64 213.797 2041.46 219.422 2014.04 246.09C1997.08 262.586 1987.07 287.473 1986.04 311C1984.38 348.954 1996.07 392.461 2033 410.216C2078.02 431.857 2153.42 414.248 2156 355M2178 286L2210 286C2211.32 255.361 2243.42 247.61 2269 251.921C2284.5 254.532 2299.72 266.482 2296.67 284C2293.98 299.481 2274.81 302.24 2262 304C2235.04 307.703 2198.55 309.711 2180.53 333C2157.71 362.487 2173.87 407.283 2209 416.105C2231.32 421.71 2257.6 419.828 2278 408.688C2285.81 404.423 2291.81 398.047 2299 393C2299.05 412.918 2314.49 421.223 2333 418.572C2337.14 417.979 2343.38 417.648 2346.4 414.348C2350.67 409.665 2348 395.075 2348 389C2343.64 389.846 2338.3 391.855 2334.05 389.678C2324.37 384.707 2328 361.035 2328 352L2328 283C2328 266.49 2328.01 250.402 2314.96 238.174C2301.3 225.379 2280.88 223 2263 223C2221.57 223 2179 237.354 2178 286M1108 227L1108 415L1140 415L1140 227L1108 227z"/>
<path style="fill:#ffffff; stroke:none;" d="M2851 230C2846.3 232.467 2840.49 232.987 2836.19 236.133C2820.73 247.436 2843.09 269.239 2850.99 249.996C2852.28 246.861 2852 243.315 2852 240C2852 236.582 2852.33 233.165 2851 230M2975 230C2970.3 232.467 2964.49 232.987 2960.19 236.133C2944.73 247.436 2967.09 269.239 2974.99 249.996C2976.28 246.861 2976 243.315 2976 240C2976 236.582 2976.33 233.165 2975 230M1870 251.439C1796.6 262.903 1810.13 402.039 1890 390.572C1917.68 386.597 1931.54 362.736 1935.13 337C1940.97 295.12 1920.7 243.52 1870 251.439M2020 303L2126 303C2122.4 283.912 2116.06 267.174 2098 257.312C2063.48 238.465 2020.11 263.378 2020 303M0 282L0 573L329 573L329 572C280.793 569.925 235 524.133 235 476L242 475C246.353 493.988 254.534 511.837 271 523.226C314.045 552.999 377.073 521.382 368.866 467C367.645 458.911 364.734 451.022 360.547 444C342.679 414.03 303.218 409.836 273 399.305C259.355 394.549 246.901 387.553 232 389.174C223.316 390.118 215.861 395.764 208 399.127C197.672 403.547 184.217 405.897 173 404.83C159.836 403.578 147.198 400.881 137.004 391.816C129.852 385.455 125.895 375.146 117 370.92C103.041 364.288 84.9619 366.985 70 361.189C44.7503 351.407 23.1725 331.743 10.3086 308C5.82138 299.718 4.33706 290.098 0 282z"/>
<path style="fill:#a3abbd; stroke:none;" d="M2779 303L2779 418L2802 418C2802 399.597 2800.33 380.307 2802.17 362C2802.84 355.38 2806.38 345.591 2815 347.477C2823.13 349.258 2822 358.721 2822 365L2822 418L2846 418L2846 368C2846 359.125 2846.99 348.239 2843.08 340C2836.23 325.547 2810.59 325.037 2803 339L2802 339L2802 303L2779 303M3146 303L3146 418L3169 418L3169 303L3146 303M3185 303L3185 418L3208 418C3208 404.615 3206.94 395.218 3215 384L3227.25 408L3233.39 417.397L3258 418C3254.07 405.597 3245.45 393.384 3239.14 382C3236.81 377.807 3231.21 370.967 3231.55 366C3232.41 353.51 3250.78 343.409 3254 331C3247.19 331 3236.5 328.954 3230.18 331.603C3222.3 334.911 3212.73 353.495 3209 361L3208 361L3208 303L3185 303M2737 307L2737 331L2726 331L2726 347L2737 347L2737 397C2737 403.566 2736.92 412.13 2743.05 416.258C2751.26 421.781 2763.94 418.187 2773 418L2773 402L2761.74 398.852L2760 384L2760 347L2773 347L2773 331L2760 331L2760 307L2737 307M2941 307L2941 331L2930 331L2930 347L2941 347L2941 397C2941 403.786 2940.63 412 2947.04 416.258C2955.31 421.75 2967.89 418.188 2977 418L2977 402L2965.6 398.852L2964 384L2964 347L2977 347L2977 331L2964 331L2964 307L2941 307M3026 307L3026 331L3015 331L3015 347L3026 347C3026 363.333 3025.92 379.668 3026 396C3026.03 402.051 3026.15 411.142 3031.22 415.347C3039.18 421.942 3052.76 418.397 3062 418L3062 402L3050.94 398.772L3049 383L3049 347L3062 347L3062 331L3049 331L3049 307L3026 307z"/>
<path style="fill:#ffffff; stroke:none;" d="M2296 319C2275.21 331.089 2249.18 326.376 2227 334.436C2205.58 342.218 2193.24 373.149 2218 386.175C2239.86 397.678 2276.14 389.658 2289.9 369C2296.5 359.077 2297 348.52 2297 337C2297 331.381 2298.19 324.217 2296 319z"/>
<path style="fill:#a3abbd; stroke:none;" d="M2859 359L2880 359C2880.1 354.297 2880.69 349.613 2885.05 346.862C2892.67 342.06 2901.95 351.115 2897.82 358.956C2894.5 365.266 2885.1 365.901 2879 367.721C2864.53 372.033 2854.79 380.74 2856.17 397C2856.81 404.45 2858.85 411.813 2865.02 416.581C2874.44 423.877 2893.84 420.961 2899 410L2900 410C2900.64 421.69 2915.34 418 2924 418C2920 400.492 2921 382.893 2921 365C2921 356.069 2922.39 345.81 2916.89 338.093C2907.31 324.65 2875.97 325.883 2865.33 337.185C2859.64 343.223 2859.01 351.135 2859 359M3069 359L3089 359C3089.49 353.427 3091.72 346.928 3098 345.667C3105.2 344.222 3110.76 352.748 3107.54 358.956C3103.8 366.148 3091.91 366.52 3085 368.746C3070.29 373.486 3065 384.122 3066.09 399C3067.54 418.716 3097.34 430.595 3108 411L3109 411C3112.11 421.513 3124.85 418 3134 418C3128.66 401.306 3131 382.379 3131 365C3131 356.571 3132.16 346.37 3127.15 339.015C3117.18 324.411 3085.32 325.636 3074.21 338.043C3068.76 344.132 3069 351.349 3069 359M3281 389L3260 389C3260 397.709 3260.06 407.353 3267.1 413.66C3280.93 426.038 3316.03 422.635 3322.87 404C3324.16 400.464 3324 396.705 3324 393C3324 378.222 3316.54 371.616 3303 367.003C3296.74 364.871 3287.43 363.531 3284.18 356.985C3281.24 351.055 3287.98 344.449 3294 345.667C3299.88 346.858 3301.31 352.922 3302 358L3323 358C3322.93 349.183 3321.39 340.161 3313.98 334.419C3299.63 323.285 3268.25 327.7 3262.1 346C3256.82 361.729 3265.35 375.025 3280 380.575C3286.35 382.981 3298.41 385.003 3301.25 392.093C3304.22 399.488 3295.62 405.919 3288.83 403.647C3282.3 401.458 3281.05 395.027 3281 389z"/>
<path style="fill:#ffffff; stroke:none;" d="M3108 376C3103.3 378.671 3097.36 379.434 3093.05 382.652C3077.61 394.196 3099.96 415.735 3107.99 395.999C3109.27 392.856 3109 389.321 3109 386C3109 382.582 3109.33 379.165 3108 376M2899 377C2894.47 378.237 2889.18 379.484 2885.02 381.684C2864.62 392.47 2893.46 417.289 2898.61 394.999C2899.9 389.374 2899 382.753 2899 377z"/>
</svg>
